<?xml version="1.0" encoding="UTF-8"?>
<svg width="81px" height="81px" viewBox="0 0 81 81" version="1.1" xmlns="http://www.w3.org/2000/svg" xmlns:xlink="http://www.w3.org/1999/xlink">
    <!-- Generator: Sketch 49.1 (51147) - http://www.bohemiancoding.com/sketch -->
    <title>Certain Mark - White</title>
    <desc>Created with Sketch.</desc>
    <defs></defs>
    <g id="Certain-Mark---White" stroke="none" stroke-width="1" fill="none" fill-rule="evenodd">
        <path d="M68.179979,48.3429172 C69.0324016,48.8300158 69.313743,49.9375352 68.7762549,50.7595141 C63.2628027,59.2050059 53.7349862,64.7908931 42.8959927,64.7908931 C25.4055838,64.7908931 11.3101682,50.2566688 12.0261192,32.607743 C12.6696352,16.7801879 25.4318284,3.86262713 41.2509851,3.04274782 C52.7628886,2.44542217 62.9804115,8.15833285 68.7720558,17.024787 C69.3105937,17.8488655 69.0324016,18.9595343 68.1789292,19.4487324 L60.8755997,23.6216137 C60.0893133,24.0698704 59.1067179,23.8231717 58.5933748,23.0788767 C55.1542907,18.0966139 49.407787,14.8286442 42.8959927,14.8286442 C32.1850725,14.8286442 23.5380226,23.6594058 23.8372103,34.437512 C24.1070042,44.1878822 31.8900839,52.2879959 41.6236575,52.9199644 C48.6540439,53.3766193 54.9296375,50.0173186 58.5912752,44.7138227 C59.1056681,43.9684779 60.0893133,43.7207295 60.8755997,44.1689861 L68.179979,48.3429172 Z M55.4831873,70.4180366 C56.4311399,70.4180366 57.1995799,71.1864766 57.1995799,72.1344293 L57.1995799,77.2836073 C57.1995799,78.23156 56.4311399,79 55.4831873,79 L30.3094279,79 C29.3614753,79 28.5930353,78.23156 28.5930353,77.2836073 L28.5930353,72.1344293 C28.5930353,71.1864766 29.3614753,70.4180366 30.3094279,70.4180366 L55.4831873,70.4180366 Z" id="Combined-Shape" fill="#FFFFFF"></path>
    </g>
</svg>